<svg xmlns="http://www.w3.org/2000/svg" width="753.969" height="188.425" viewBox="1298 9604 753.969 188.425"><g data-name="Rectangle 116" clip-path="url(&quot;#a&quot;)"><g data-name="Group 1000001431"><g data-name="Group"><path d="M2049.983 9683.162a965.699 965.699 0 0 0-7.61-10.464c-10.174-13.69-21.217-27.007-34.989-37.181-14.144-10.505-31.184-16.585-48.927-15.592-9.223.537-18.322 2.812-26.676 6.741-8.355 3.97-15.675 9.72-22.623 15.716-6.99 5.997-13.69 12.367-21.3 17.578-7.61 5.21-16.047 8.892-24.98 11.084-18.28 4.508-37.388 3.35-56 3.019-17.742-.331-35.444.165-52.69 4.963-31.143 8.644-57.985 27.669-84 46.115-26.427 18.776-53.352 38.256-84.701 47.851-1.613.455-2.15 2.937-.497 3.764 1.407.703 2.771 1.365 4.178 2.068 2.357 1.2 4.466-2.358 2.068-3.557-1.407-.703-2.771-1.365-4.178-2.068-.165 1.24-.33 2.523-.496 3.764a145.799 145.799 0 0 0 11.084-3.805c30.068-11.663 55.958-31.35 82.138-49.754 25.725-18.074 52.856-36.024 84.164-42.476 18.033-3.722 36.479-2.812 54.759-2.481 17.908.33 36.437.248 53.518-5.873 8.396-3.02 15.964-7.486 22.995-12.945 7.114-5.542 13.648-11.787 20.597-17.536 7.279-5.956 15.095-11.208 24.029-14.31a68.994 68.994 0 0 1 27.172-3.64c36.189 2.482 59.97 34.038 79.367 61.087 1.572 2.15 5.129.082 3.598-2.068Z" fill="#fff" fill-rule="evenodd" data-name="Vector"/></g><g data-name="Group"><path d="M2051.886 9653.26c-3.846-4.55-7.94-8.893-12.324-12.904-36.106-33.128-87.887-44.792-134.622-30.11-24.236 7.61-44.46 21.797-62.286 39.622-18.57 18.57-35.444 39.084-58.605 52.236-50.457 28.62-110.758 23.285-166.343 20.265-55.834-3.06-111.337.331-165.93 12.325a585.217 585.217 0 0 0-153.647 57.24c-.29.166-.041.62.248.455a565.079 565.079 0 0 1 17.908-9.347c49.01-24.484 101.535-41.937 155.425-51.863a584.881 584.881 0 0 1 82.262-9.182c28.744-1.116 57.323.538 86.026 2.11 52.07 2.812 109.186 3.184 153.977-27.628 20.72-14.269 36.354-34.369 54.47-51.574 19.065-18.115 41.688-31.226 67.455-37.098 49.837-11.333 102.775 6.782 135.655 45.825.207.248.58-.124.331-.373Z" fill="#fff" fill-rule="evenodd" data-name="Vector"/></g></g></g><defs><clipPath id="a"><path d="M0 0h308v107H0V0z" data-name="Rectangle 116" transform="translate(1612 9591)"/></clipPath></defs></svg>